<svg xmlns="http://www.w3.org/2000/svg" viewBox="0 0 64 64">
  <defs>
    <linearGradient id="sg" x1="0" y1="1" x2="1" y2="0">
      <stop offset="0%" stop-color="#3A6AAA"/>
      <stop offset="50%" stop-color="#6AB0E8"/>
      <stop offset="100%" stop-color="#A0D8FF"/>
    </linearGradient>
  </defs>
  <!-- Blade -->
  <path d="M42,6 L50,14 L24,40 L16,32 Z" fill="url(#sg)"/>
  <!-- Blade tip -->
  <path d="M50,14 L56,8 L52,4 L42,6 Z" fill="#A0D8FF"/>
  <!-- Blade edge highlight -->
  <path d="M42,6 L50,14 L38,26 L30,18 Z" fill="#B8E0FF" opacity="0.3"/>
  <!-- Guard -->
  <rect x="10" y="34" width="22" height="6" rx="2" fill="#4A7EC8" transform="rotate(-45 22 38)"/>
  <!-- Handle -->
  <path d="M14,42 L8,48 C7,49 7,51 8,52 L12,56 C13,57 15,57 16,56 L22,50 Z" fill="#3A5A8A"/>
  <!-- Handle wrap lines -->
  <line x1="12" y1="46" x2="16" y2="50" stroke="#2A4A7A" stroke-width="1.5"/>
  <line x1="14" y1="44" x2="18" y2="48" stroke="#2A4A7A" stroke-width="1.5"/>
  <!-- Pommel -->
  <circle cx="10" cy="54" r="3" fill="#4A7EC8"/>
</svg>
